<?xml version="1.0" encoding="utf-8"?>
<!-- Generator: Adobe Illustrator 23.0.1, SVG Export Plug-In . SVG Version: 6.00 Build 0)  -->
<svg version="1.1" id="Calque_1" xmlns="http://www.w3.org/2000/svg" xmlns:xlink="http://www.w3.org/1999/xlink" x="0px" y="0px"
	 viewBox="0 0 2920 673" enable-background="new 0 0 2920 673" xml:space="preserve">
<path fill="#AF4141" d="M488,349c8-4,16-8,24-12c6.91-2.66,24.4-8.22,42-1c10.96,4.5,19.03,12.45,21,15c5.67,7.33,11.33,14.67,17,22
	c6.02,7.79,8.7,10.6,11,13c6.62,6.91,29.03,16.89,38,17c5.65,0.07,14.03-0.38,24-3c9.43-2.55,16.82-6.08,22-9
	c9.73-5.49,16.11-11.37,20-15c5.19-4.84,9.15-9.41,12-13c1.52-2.91,3.4-6.97,5-12c0.53-1.68,2.03-6.6,3-14
	c1.79-13.64,0.71-27.3,0-34c-0.41-3.9-1.24-9.08-3-15c-1.14-3.82-3.49-11.5-9-20c-6.03-9.3-12.73-14.77-18-19
	c-3.71-2.98-10.38-7.24-19-12c-5.54-3.05-15.77-7.54-29-9c-6.23-0.69-27.37-3.02-45,9c-13.53,9.22-9.07,16.04-26,31
	c-6.26,5.53-17.89,15.58-35,19c-7.15,1.43-14.77,0.95-30,0c-12.52-0.78-22.84-2.01-30-3c-10.33-3-20.67-6-31-9
	c-1.72-0.55-5.7-2.07-9-6c-2.6-3.09-3.59-6.27-4-8c-0.04-0.16-0.1-0.42-0.17-0.78c-0.9-4.34-0.2-8.23,0.17-10.22
	c1.37-7.31,2.06-10.97,3-14c1.56-5.02,4.25-12.07,9-20c6.66-12.71,13.01-22.72,18-30c4.07-5.93,7.73-10.77,14-15
	c1.65-1.11,6.21-4.03,13-6c14.06-4.09,19.15,1.16,38,0c7.51-0.46,14.77-0.98,23-5c9.52-4.65,14.98-11.36,19.54-16.97
	c9.21-11.32,13.05-22.4,14.46-27.03c3.08-10.1,3.17-17.75,3.31-29.62c0.12-9.87,0.16-19.44-3.31-31.38c-1-3.42-2.87-9.71-7-17
	c-2.69-4.74-12.29-21.16-32-30c-7.71-3.46-14.14-4.31-27-6c-11.68-1.54-21.29-2.72-33,0c-6.77,1.57-14.3,4.46-17.65,5.74
	C469.83,9.47,464.81,11.6,462,13c-12.85,6.4-26.11,20.72-32,39c-1.93,6-4.96,15.41-3,27c2.5,14.77,10.65,18.49,13,36
	c0.96,7.12,0.48,13,0,19c-0.87,10.85-3.07,19.74-5,26c-1.4,4.53-2.64,6.91-15,29c-10.15,18.15-12.53,22.18-17,28
	c-9.67,12.59-15.32,15.57-19,17c-2.71,1.05-9.46,3.57-17.78,1.53c-6.82-1.67-11.25-5.56-13.22-7.53c-5.02-5.71-12.01-13.88-20-24
	c-13.16-16.67-19.74-25-25-35c-7.45-14.16-19.42-36.9-11-54c2.75-5.58,6.12-7.43,9-16c3.06-9.11,2.74-17.44,2.53-22.8
	c-0.15-4.01-0.17-9.53-2.53-16.2c-3.62-10.19-9.04-19.13-16-27c0,0-6-14-37-24s-59,2-59,2c-13.75,7.76-25.96,15.48-31,23
	c-3.73,3.65-7.18,7.91-10.34,12.74c-3.92,5.99-6.74,11.57-8.66,16.26c-1.31,4.36-2.61,10.13-3,17c-0.39,6.76,0.22,12.56,1,17l5,23
	c4.33,7.33,8.67,14.67,13,22c4.42,4.5,10.31,9.71,17.85,14.63c9.79,6.38,19.05,10.12,26.15,12.37c5.64,0.3,13.51,1.04,22.73,2.98
	c6.3,1.33,15.28,3.23,23.27,7.02c7.36,3.49,13.4,8.36,30.92,30.79c6.82,8.73,15.48,20.25,25.08,34.21c10.67,27.08,4.04,42.21,1,45
	c-16.08,14.75-65.72,18.12-95,11c-15-13-20.74-30.86-54-38c-3.07-0.66-19.29-4.98-40-1c-7.37,1.42-22.22,4.45-37,16
	c-18.51,14.47-25,33.03-27,39c-2.35,7.02-9.52,29.53,0,54c6.62,17.01,18.29,27.24,26,34c4.79,4.2,12.55,10.89,24,16
	c4.2,1.87,38.73,16.69,67,1c5.83-3.24,15.07-14.25,33.32-36.15c20.27-24.32,21.19-27.49,27.68-29.85c18.77-6.82,40.56,8.94,60,23
	c13.97,10.1,33.73,27.05,52,54c0,41.67,0,83.33,0,125c0,0-16,102-11,107c0.24,0.24,0.7,0.47,1.37,0.68
	c13.14,4.2,105.06,2.79,113.63-7.68c9-11-10-113-10-113c0.33-34.67,0.67-69.33,1-104c0.09-10.76,1.8-35.38,18-60
	C467.39,364.22,479.77,354.46,488,349z"/>
<path fill="#AF4141" d="M426,466"/>
<path fill="#AF4141" d="M354,370"/>
<path fill="#AF4141" d="M212,321"/>
</svg>
