<?xml version="1.0" encoding="utf-8"?>
<!-- Generator: Adobe Illustrator 16.0.0, SVG Export Plug-In . SVG Version: 6.00 Build 0)  -->
<!DOCTYPE svg PUBLIC "-//W3C//DTD SVG 1.1//EN" "http://www.w3.org/Graphics/SVG/1.1/DTD/svg11.dtd">
<svg version="1.1" id="Calque_1" xmlns="http://www.w3.org/2000/svg" xmlns:xlink="http://www.w3.org/1999/xlink" x="0px" y="0px"
	 width="595.281px" height="120.035px" viewBox="0 0 595.281 120.035" enable-background="new 0 0 595.281 120.035"
	 xml:space="preserve">
<path fill="#CDB380" d="M60.668,76.896c0-18.476,12.772-37.633,27.141-51.09c5.246-4.789,13.457-10.947,22.352-15.736
	c5.93-3.193,12.088-5.93,18.018-7.299c-37.861,3.193-75.722,6.385-113.583,9.35c-5.474,0.457-9.579,4.562-9.123,9.123
	c2.737,26.229,5.246,52.458,7.755,78.688c0.456,4.563,4.79,8.668,9.807,9.123c21.667,1.824,43.563,3.648,65.23,5.245
	c-4.105-1.597-7.982-3.647-11.632-6.612C65.23,98.79,60.668,88.07,60.668,76.896z"/>
<path fill="#CDB380" d="M161.707,79.859c-0.228,0.229-0.228,0.457-0.228,0.685c0,0.229,0,0.229,0.228,0.457l-0.457,0.229
	l0.457,0.229c-4.79,10.264-13.457,19.386-23.492,25.771c-7.298,4.789-15.737,7.981-24.176,9.58
	c13.228,1.141,26.685,2.278,39.913,3.191c5.018,0.456,9.351-3.878,9.808-9.809c0.912-12.088,1.824-24.403,2.965-36.491
	c-1.141,1.823-2.509,3.192-3.649,4.333C162.619,78.72,161.935,79.404,161.707,79.859z"/>
<path fill="#CDB380" d="M162.619,0.033c-7.526,0.685-15.281,1.142-22.808,1.825c3.649,0.456,6.842,1.824,9.351,4.563
	c2.965,3.42,4.79,8.666,4.79,16.42c0,1.369,0,2.737-0.228,4.334v0.228l-0.228,0.228c-1.597,1.141-3.193,1.825-4.562,1.825
	s-2.737-0.684-3.649-1.597c-0.912-0.912-1.824-2.281-2.509-3.877c-1.368-2.965-2.509-6.614-3.877-9.352
	c-0.913-1.824-1.825-3.193-2.965-3.877c-2.053-1.141-4.333-1.597-6.614-1.597c-4.105,0-8.438,1.825-13,4.79
	c-4.562,2.965-8.895,7.299-13.229,12.316C94.424,36.298,86.669,49.07,81.424,60.474c-3.421,7.525-5.93,14.368-6.614,19.157
	c-0.228,2.281-0.456,4.334-0.456,6.158c0,6.613,1.825,10.947,5.246,13.686c3.193,2.736,7.755,3.877,13.229,3.877
	c9.579,0,21.667-3.647,32.615-8.438c7.754-3.421,15.053-7.299,20.299-10.721h-0.228l-0.457-0.685
	c7.527-5.019,14.825-10.034,22.124-15.28c1.597-19.388,2.965-39,4.562-58.388C172.198,3.91,168.093-0.423,162.619,0.033z"/>
<g>
	<path fill="#CDB380" d="M229.673,87.389c-2.509,1.366-7.755,2.965-14.597,2.965c-15.281,0-25.316-10.492-25.316-26.002
		c0-15.736,10.72-27.142,27.369-27.142c5.474,0,10.264,1.368,12.772,2.737l-2.053,7.069c-2.281-1.368-5.702-2.508-10.72-2.508
		c-11.632,0-18.018,8.666-18.018,19.158c0,11.859,7.527,19.158,17.79,19.158c5.246,0,8.667-1.368,11.404-2.51L229.673,87.389z"/>
	<path fill="#CDB380" d="M282.815,63.211c0,18.932-13,27.143-25.316,27.143c-13.685,0-24.404-10.035-24.404-26.229
		c0-17.106,11.176-27.142,25.317-27.142C273.008,36.981,282.815,47.701,282.815,63.211z M242.446,63.895
		c0,11.176,6.386,19.614,15.509,19.614c8.895,0,15.509-8.211,15.509-19.843c0-8.667-4.333-19.614-15.281-19.614
		C247.235,44.052,242.446,54.087,242.446,63.895z"/>
	<path fill="#CDB380" d="M291.254,52.034c0-5.246,0-9.579-0.456-13.686h8.211l0.455,8.211h0.229
		c2.734-4.789,7.525-9.351,15.965-9.351c6.844,0,12.314,4.105,14.369,10.263h0.229c1.596-2.965,3.648-5.018,5.701-6.613
		c2.965-2.281,6.387-3.649,11.176-3.649c6.844,0,16.65,4.333,16.65,22.123v30.105h-9.123V60.244c0-9.808-3.65-15.737-10.947-15.737
		c-5.246,0-9.352,3.877-10.949,8.439c-0.455,1.367-0.684,2.965-0.684,4.563v31.476h-9.123V58.649
		c0-8.211-3.648-13.913-10.719-13.913c-5.703,0-10.035,4.562-11.404,9.351c-0.457,1.369-0.684,2.965-0.684,4.563v30.79h-9.125
		L291.254,52.034L291.254,52.034z"/>
	<path fill="#CDB380" d="M375.871,54.771c0-6.613-0.229-11.859-0.457-16.648h8.211l0.457,8.667h0.229
		c3.879-6.157,9.809-9.808,18.02-9.808c12.314,0,21.668,10.492,21.668,26c0,18.246-11.176,27.369-23.266,27.369
		c-6.844,0-12.543-2.966-15.736-7.981h-0.229v27.597h-9.122L375.871,54.771L375.871,54.771z M385.222,68.456
		c0,1.369,0.229,2.737,0.455,3.878c1.6,6.386,7.299,10.947,13.914,10.947c9.809,0,15.508-7.982,15.508-19.614
		c0-10.264-5.473-18.931-15.053-18.931c-6.387,0-12.316,4.562-13.912,11.403c-0.229,1.141-0.686,2.51-0.686,3.877L385.222,68.456
		L385.222,68.456z"/>
	<path fill="#CDB380" d="M443.837,26.034V38.35h13.229v7.07h-13.229v27.37c0,6.386,1.824,9.808,6.842,9.808
		c2.512,0,4.105-0.229,5.477-0.685l0.455,6.842c-1.824,0.687-4.563,1.369-8.211,1.369c-4.332,0-7.756-1.369-10.035-4.104
		c-2.736-2.736-3.648-7.3-3.648-13.229V45.192h-7.98v-7.07h7.98V28.77L443.837,26.034z"/>
	<path fill="#CDB380" d="M500.171,76.896c0,4.332,0.229,8.666,0.914,12.313h-8.438l-0.686-6.386h-0.229
		c-2.738,4.105-8.211,7.525-15.512,7.525c-10.264,0-15.51-7.3-15.51-14.598c0-12.314,10.949-19.158,30.563-18.931v-1.14
		c0-4.105-1.143-11.86-11.633-11.86c-4.791,0-9.578,1.368-13.229,3.877l-2.053-6.158c4.104-2.737,10.264-4.562,16.646-4.562
		c15.51,0,19.389,10.72,19.389,20.755L500.171,76.896L500.171,76.896z M491.277,63.211c-10.035-0.229-21.666,1.598-21.666,11.403
		c0,5.93,4.104,8.896,8.666,8.896c6.613,0,10.945-4.104,12.314-8.438c0.229-0.912,0.455-2.053,0.455-2.965L491.277,63.211
		L491.277,63.211z"/>
	<path fill="#CDB380" d="M512.033,14.402h9.352v74.809h-9.352V14.402z"/>
	<path fill="#CDB380" d="M533.699,89.211V38.122h9.352v50.86h-9.352V89.211z"/>
	<path fill="#CDB380" d="M590.947,76.896c0,4.332,0.229,8.666,0.912,12.313h-8.439l-0.684-6.386h-0.229
		c-2.736,4.105-8.211,7.525-15.508,7.525c-10.264,0-15.51-7.3-15.51-14.598c0-12.314,10.945-19.158,30.563-18.931v-1.14
		c0-4.105-1.141-11.86-11.633-11.86c-4.789,0-9.578,1.368-13.229,3.877l-2.053-6.158c4.105-2.737,10.266-4.562,16.65-4.562
		c15.51,0,19.387,10.72,19.387,20.755L590.947,76.896L590.947,76.896z M582.052,63.211c-10.035-0.229-21.668,1.598-21.668,11.403
		c0,5.93,4.105,8.896,8.668,8.896c6.613,0,10.947-4.104,12.314-8.438c0.229-0.912,0.457-2.053,0.457-2.965L582.052,63.211
		L582.052,63.211z"/>
</g>
<g>
	<path fill="#CDB380" d="M539.173,31.736c4.789-1.368,10.035-7.981,6.158-15.737c-2.281,5.246-13.229,9.123-13.229,9.123
		c3.648,1.369,5.932,1.141,5.932,1.141s-2.281,2.281-8.896,0.912C530.05,30.824,535.525,32.648,539.173,31.736z"/>
</g>
</svg>
